# xmcd
#
# Track frame offsets:
#	150
#	17086
#	34438
#	48179
#	62548
#	78657
#
# Disc length: 1284 seconds
# Revision: 0
# Processed by: cddbd v1.5.2PL0 Copyright (c) Steve Scherf et al.
# Submitted via: dBpowerAMP V12.0
#
DISCID=46050206
DTITLE=Skelton, Hoss - I Want to Live Like Elvis
DYEAR=2012
DGENRE=Country
TTITLE0=I Wish You Well
TTITLE1=I Want to Live Like Elvis
TTITLE2=Good for Me
TTITLE3=Wasted
TTITLE4=Where's the Good in Goodbye
TTITLE5=In a Box
EXTD=
EXTT0=
EXTT1=
EXTT2=
EXTT3=
EXTT4=
EXTT5=
PLAYORDER=
